<mxfile host="app.diagrams.net" agent="Mozilla/5.0 (Windows NT 10.0; Win64; x64) AppleWebKit/537.36 (KHTML, like Gecko) Chrome/131.0.0.0 Safari/537.36" version="26.0.4">
  <diagram name="Page-1" id="t8hbnDa57pbnVzrWuv6h">
    <mxGraphModel dx="1170" dy="593" grid="1" gridSize="10" guides="1" tooltips="1" connect="1" arrows="1" fold="1" page="1" pageScale="1" pageWidth="850" pageHeight="1100" math="0" shadow="0">
      <root>
        <mxCell id="0" />
        <mxCell id="1" parent="0" />
        <mxCell id="KMwFOJjkS39PzhaUzI2Y-2" value="MongoDB" style="shape=datastore;whiteSpace=wrap;html=1;" vertex="1" parent="1">
          <mxGeometry x="530" y="400" width="60" height="60" as="geometry" />
        </mxCell>
        <mxCell id="KMwFOJjkS39PzhaUzI2Y-3" value="Postgres&lt;div&gt;Sql&lt;/div&gt;" style="shape=datastore;whiteSpace=wrap;html=1;" vertex="1" parent="1">
          <mxGeometry x="340" y="400" width="60" height="60" as="geometry" />
        </mxCell>
        <mxCell id="KMwFOJjkS39PzhaUzI2Y-5" value="Logger" style="whiteSpace=wrap;html=1;aspect=fixed;" vertex="1" parent="1">
          <mxGeometry x="520" y="250" width="80" height="80" as="geometry" />
        </mxCell>
        <mxCell id="KMwFOJjkS39PzhaUzI2Y-6" value="Minio" style="strokeWidth=2;html=1;shape=mxgraph.flowchart.database;whiteSpace=wrap;" vertex="1" parent="1">
          <mxGeometry x="530" y="120" width="60" height="60" as="geometry" />
        </mxCell>
        <mxCell id="KMwFOJjkS39PzhaUzI2Y-7" value="GCS" style="strokeWidth=2;html=1;shape=mxgraph.flowchart.database;whiteSpace=wrap;" vertex="1" parent="1">
          <mxGeometry x="350" y="120" width="60" height="60" as="geometry" />
        </mxCell>
        <mxCell id="KMwFOJjkS39PzhaUzI2Y-8" value="Auth, Admin, Transaction" style="whiteSpace=wrap;html=1;aspect=fixed;" vertex="1" parent="1">
          <mxGeometry x="330" y="250" width="80" height="80" as="geometry" />
        </mxCell>
      </root>
    </mxGraphModel>
  </diagram>
</mxfile>
